<svg id="Layer_1" data-name="Layer 1" xmlns="http://www.w3.org/2000/svg" viewBox="0 0 75 75"><defs><style>.cls-1{fill:#fff;}</style></defs><title>Artboard 2 copy 2</title><rect width="75" height="75"/><path class="cls-1" d="M22.87,53.47c-.54,2.07-1.09,4.31-1.42,6.44-.22,1.58-.65,3.49-.65,4.36,0,.28.05.6.05.88a1,1,0,0,1-1,1c-.54,0-.43-1.42-.43-2.23a46.25,46.25,0,0,1,1.53-10.87c.27-1,.21-2.07.82-2.89,0-.11-.17-.27-.17-.55a11.14,11.14,0,0,1,1-2.67c.28-.71.33-2.35.6-3.44.22-.82.55-1.53.77-2.35a.84.84,0,0,0-.6-.21H22.22c-1.8,0-8.41-.44-8.41-3.22a.77.77,0,0,1,.16-.44c1.31,0,1.21,1.31,2.52,1.75,1.63.65,4.53.43,6.33.43a11.56,11.56,0,0,0,1.31-.05,36.25,36.25,0,0,0,1.36-4.59c.6-2.18,1.31-4.15,1.91-6.6a18.94,18.94,0,0,1,.38-2.08,14.27,14.27,0,0,0,1.37-4.91v-.54c0-.82.33-1,.38-1.59.11-.71-.11-2.67,1-2.67.65,0,.93.82,1.53,1a19.88,19.88,0,0,1-.82,4.31c-.11.22-.28.28-.38.49-.22.71-.17,1.53-.44,2.24-.11.49-.44.88-.55,1.31.06,0,.17.06.17.11,0-.44-.82,3.17-1.53,5.35-.11.44-.44.82-.55,1.31s-.11.93-.27,1.42c-.38,1.69-1.09,3.38-1.47,5.18h.16c.82,0,1.53-.54,2.35-.54h1c.82,0,1.7-.55,2.3-.55.27,0,.43.22.71.22,2.07,0,5.45-1.42,6.93-1.64,1.09-.16,2-.49,3.16-.76.33,0,.77,0,1.15,0,3.71-1,6.6-1.59,9.72-3a7.14,7.14,0,0,1,1.85-.93c.11,0,.22.11.33.11s1.25-.76,1.42-.76h.38c.27,0,.49-.38.82-.65a45.53,45.53,0,0,0,5.18-3.5c.55-.44,1.15-.71,1.53-1.09s.38-.71.71-1.09c.11-.17.44-.22.49-.33s.11-.49.22-.65c.66-.93,1.75-2,1.75-3.88a5.46,5.46,0,0,0-2.24-4.31,4.22,4.22,0,0,1-1-.49c-.11-.11-.11-.33-.17-.33h-.21c-3.17-2.35-10.16-4.37-16.76-4.37-.44,0-.49.22-.71.22-.66,0-2.18-.22-3.39-.22-5.4,0-8.62,1-13.31,2.08a42.1,42.1,0,0,0-4.48,1.25A70.77,70.77,0,0,0,15.61,18.8a27.47,27.47,0,0,0-6.93,4.81c-.93.71-1.26,1.64-1.86,2,.06.55.28.88.28,1.31a1.88,1.88,0,0,1-.17.66A2.2,2.2,0,0,1,4.75,25.3C4.75,24,6,23,7,22.19c.49-.44,2.29-2.4,3-2.4.49,0,.33-.28.55-.33.54-.44,1.8-1,2.83-1.75.06-.05.17-.27.22-.27h.22c.55,0,1.58-.93,2-1.2,3.06-1.47,4.75-2.18,9.17-4a3.85,3.85,0,0,0,.82-.11c.16-.05.27-.22.49-.27,1.69-.49,3.28-.77,5.24-1.26a9.54,9.54,0,0,0,1.15-.43c.92-.22,1.85-.22,2.78-.39.49-.05,5.29-.92,6.88-.92H44.1a72.91,72.91,0,0,1,8.08.32A23.5,23.5,0,0,0,56,9.8h.44c.54,0,.6.33.92.38a15.24,15.24,0,0,1,1.81.27c.27.06.54.39.81.55a5.67,5.67,0,0,1,1,.16c.43.22,1.25.93,1.74.93.11,0,.22-.05.28-.05.6,0,1.85,1.47,2.89,1.47v.11c0,.44.6.38.82.55s.43,1,.76,1h.22c.22,0,.11.44.22.49s.38.06.49.17c.38.27.27.71.71,1.36a6,6,0,0,1,1.2,3.17c0,2.51-1.69,4.86-3.33,6.49-.44.49-1,.77-1.42,1.26a8,8,0,0,1-3.11,2.13v.11c0,.54-.76.43-1.09.65-.06.06-.06.27-.17.33a13.12,13.12,0,0,1-2.83,1.53,66.51,66.51,0,0,1-11.85,4.2,6.59,6.59,0,0,0-2.51.71,9.55,9.55,0,0,0-2.46.22,48.16,48.16,0,0,1-8,1.74c-2.23.28-5.13,1.15-7.69,1.15C24.73,44.79,23.91,49.21,22.87,53.47Z"/></svg>