<svg width="325" height="104" viewBox="0 0 325 104" fill="none" xmlns="http://www.w3.org/2000/svg">
<path d="M25.592 38.64C28.6 38.64 31.992 37.616 34.616 37.296C41.592 36.272 43.512 35.248 43.96 35.248C44.984 34.992 45.88 34.992 46.84 34.992C47.736 34.352 48.76 34.416 49.784 34.16C54.776 32.944 59.512 31.152 63.672 29.232C65.272 28.464 66.616 27.888 67 27.44C67.128 27.376 67.128 27.12 67.192 27.056C67.576 26.8 68.472 26.928 68.472 26.288C68.472 26.288 68.472 26.224 68.472 26.16C69.688 25.904 71.416 24.432 72.12 23.664C72.632 23.088 73.272 22.768 73.784 22.192C75.704 20.272 77.688 17.52 77.688 14.576C77.688 13.36 77.112 12.144 76.28 10.864C75.768 10.096 75.896 9.584 75.448 9.264C75.32 9.136 75 9.2 74.872 9.072C74.744 9.008 74.872 8.496 74.616 8.496C74.552 8.496 74.488 8.496 74.36 8.496C73.976 8.496 73.656 7.472 73.464 7.28C73.208 7.088 72.504 7.152 72.504 6.64C72.504 6.576 72.504 6.576 72.504 6.512C71.288 6.512 69.816 4.784 69.112 4.784C69.048 4.784 68.92 4.848 68.792 4.848C68.216 4.848 67.256 4.016 66.744 3.76C66.36 3.632 65.976 3.632 65.592 3.568C65.272 3.376 64.952 2.992 64.632 2.928C64.056 2.672 63.288 2.8 62.52 2.608C62.136 2.544 62.072 2.16 61.432 2.16C61.24 2.16 61.112 2.16 60.92 2.16C59.576 2.16 57.912 1.648 56.504 1.392C53.432 1.008 49.464 1.008 47.032 1.008C46.712 1.008 46.456 1.008 46.264 1.008C45.624 1.008 45.432 1.008 44.984 1.008C43.128 1.008 37.496 2.032 36.92 2.096C35.832 2.288 34.744 2.288 33.656 2.544C33.208 2.672 32.76 2.992 32.312 3.056C30.008 3.632 28.152 3.952 26.168 4.528C25.912 4.592 25.784 4.784 25.592 4.848C25.272 4.976 24.952 4.912 24.632 4.976C19.448 7.152 17.464 7.984 13.88 9.712C13.368 10.032 12.152 11.12 11.512 11.12C11.384 11.12 11.32 11.12 11.256 11.12C11.192 11.12 11.064 11.376 11 11.44C9.784 12.272 8.312 12.976 7.672 13.488C7.416 13.552 7.608 13.872 7.032 13.872C6.2 13.872 4.088 16.176 3.512 16.688C2.296 17.648 0.887999 18.8 0.887999 20.336C0.887999 21.872 1.976 22.832 3.448 22.96C3.576 22.64 3.64 22.384 3.64 22.192C3.64 21.68 3.384 21.296 3.32 20.656C4.024 20.272 4.408 19.184 5.496 18.352C10.168 14.192 13.752 12.592 13.624 12.72C17.4 10.544 21.56 8.624 26.04 6.96C28.152 6.192 30.264 5.744 31.288 5.488C36.792 4.208 40.568 3.056 46.904 3.056C48.312 3.056 50.104 3.248 50.872 3.312C51.128 3.312 51.192 3.056 51.704 3.056C59.448 3.056 67.64 5.424 71.352 8.176C71.416 8.176 71.48 8.176 71.608 8.176C71.672 8.176 71.672 8.432 71.8 8.56C72.248 8.88 72.632 9.008 72.952 9.136C74.36 10.224 75.576 11.952 75.576 14.192C75.576 16.432 74.296 17.648 73.528 18.736C73.4 18.928 73.464 19.312 73.272 19.504C73.208 19.632 72.824 19.696 72.696 19.888C72.312 20.336 72.184 20.848 71.864 21.168C71.416 21.616 70.712 21.936 70.072 22.448C67.896 24.24 65.336 25.712 63.992 26.544C63.608 26.864 63.352 27.312 63.032 27.312C62.904 27.312 62.712 27.312 62.584 27.312C62.392 27.312 61.112 28.208 60.92 28.208C60.792 28.208 60.664 28.08 60.536 28.08C60.024 28.08 58.872 28.912 58.36 29.168C54.712 30.832 51.32 31.472 46.968 32.688C46.52 32.752 46.008 32.688 45.624 32.752C44.28 33.072 43.192 33.456 41.912 33.648C40.184 33.904 36.216 35.568 33.784 35.568C33.464 35.568 33.272 35.312 32.952 35.312C32.248 35.312 31.224 35.952 30.264 35.952C29.816 35.952 29.432 35.952 29.048 35.952C28.088 35.952 27.256 36.592 26.296 36.592C26.232 36.592 26.168 36.592 26.104 36.592C26.552 34.48 27.384 32.496 27.832 30.512C28.024 29.936 27.96 29.36 28.152 28.848C28.28 28.272 28.664 27.824 28.792 27.312C29.624 24.752 30.584 20.528 30.584 21.04C30.584 20.976 30.456 20.912 30.392 20.912C30.52 20.4 30.904 19.952 31.032 19.376C31.352 18.544 31.288 17.584 31.544 16.752C31.672 16.496 31.864 16.432 31.992 16.176C32.568 14.512 32.76 12.848 32.952 11.12C32.248 10.928 31.928 9.968 31.16 9.968C29.816 9.968 30.072 12.272 29.944 13.104C29.88 13.744 29.496 14 29.496 14.96C29.496 15.152 29.496 15.408 29.496 15.6C29.496 17.84 27.896 21.552 27.896 21.36C27.64 22.192 27.576 23.088 27.448 23.792C26.744 26.672 25.912 28.976 25.208 31.536C24.632 33.328 24.44 35.12 23.608 36.912C23.096 36.976 22.584 36.976 22.072 36.976C19.96 36.976 16.568 37.232 14.648 36.464C13.112 35.952 13.24 34.416 11.704 34.416C11.576 34.608 11.512 34.736 11.512 34.928C11.512 38.192 19.256 38.704 21.368 38.704C21.816 38.704 22.2 38.704 22.648 38.704C22.904 38.704 23.16 38.768 23.352 38.96C23.096 39.92 22.712 40.752 22.456 41.712C22.136 42.992 22.072 44.912 21.752 45.744C21.24 46.768 20.728 48.048 20.6 48.88C20.6 49.2 20.792 49.392 20.792 49.52C20.088 50.48 20.152 51.696 19.832 52.912C19 56.688 17.976 60.976 18.04 65.648C18.04 66.608 17.912 68.272 18.552 68.272C19.512 68.272 19.768 67.568 19.768 67.056C19.768 66.736 19.704 66.352 19.704 66.032C19.704 65.008 20.216 62.768 20.472 60.912C20.856 58.416 21.496 55.792 22.136 53.36C23.352 48.368 24.312 43.184 25.592 38.64ZM76.737 36.336C76.737 35.312 74.241 34.16 73.217 34.16C72.897 34.16 72.641 34.224 72.385 34.416C72.385 36.592 74.241 36.912 75.777 37.552C75.969 36.976 76.737 37.232 76.737 36.336ZM88.065 45.872C88.001 45.872 88.001 45.872 88.001 45.872C88.001 45.68 89.089 45.04 89.089 44.912C89.089 44.912 89.089 44.912 89.025 44.912H88.961C88.961 44.848 89.025 44.4 89.025 44.08C89.025 43.888 89.025 43.696 88.897 43.696C88.513 44.144 88.321 43.824 87.937 44.08C86.145 45.488 84.673 46.32 83.393 47.472C81.025 49.52 78.017 51.312 75.905 53.296C74.177 54.96 71.617 56.24 69.825 57.392C69.761 57.392 69.761 57.392 69.697 57.392C69.697 57.392 69.569 57.392 69.441 57.392C69.185 57.392 69.377 57.712 69.121 57.84C68.161 58.416 67.329 58.672 66.497 58.672C65.537 58.672 64.641 58.992 64.641 57.2C64.641 55.728 65.025 54.192 65.473 52.848C65.665 52.336 66.241 51.952 66.433 51.44C66.689 50.864 66.881 49.84 66.881 49.392C66.881 49.2 66.817 49.072 66.817 48.944C66.817 48.624 67.457 48.432 67.585 48.112C68.097 46.768 68.737 45.616 69.057 44.4C68.417 43.888 68.161 42.992 67.073 42.992C65.921 42.992 64.705 47.792 64.257 48.624C64.193 48.752 63.809 48.688 63.809 49.072C63.809 49.2 63.873 49.328 63.873 49.456C63.873 49.648 63.297 50.672 63.105 51.248C62.401 52.912 61.633 55.024 61.633 56.88C61.633 59.312 63.233 61.296 66.433 61.296C68.097 61.296 69.377 60.08 70.657 59.44C73.281 57.712 75.329 56.176 77.185 54.768C80.257 52.336 82.497 50.992 84.353 48.624C85.121 48.496 85.569 48.048 86.017 47.536C86.529 46.832 87.233 47.152 88.065 45.872ZM102.263 58.864C103.479 60.144 103.927 61.168 104.951 61.168C105.399 61.168 105.847 60.976 106.487 60.976C107.447 60.976 108.023 61.232 108.215 61.232C108.663 61.232 108.727 60.976 110.007 60.592C110.647 60.336 110.647 59.632 111.607 59.632C111.863 59.632 112.119 59.696 112.375 59.696C112.887 59.696 112.759 59.376 112.951 59.184C113.207 58.992 113.655 58.992 113.847 58.928C114.167 58.736 114.551 58.352 114.871 58.16C118.007 57.136 116.407 56.56 117.495 56.56C117.687 56.56 117.943 56.56 118.071 56.56C118.327 56.56 119.607 55.728 119.799 55.6C120.887 54.896 120.439 54.896 121.527 54.192C125.239 51.632 125.367 50.672 129.015 48.816C129.335 47.792 131.575 47.408 132.279 46.704C132.471 46.576 132.471 46.064 132.663 45.872C133.111 45.296 133.879 45.168 133.879 44.144C133.879 43.952 133.815 43.184 133.623 43.184C133.367 43.184 131.831 44.72 131.063 45.36C129.847 46.384 129.143 46.64 127.863 47.664C127.543 47.856 126.967 47.92 126.647 48.112C125.111 49.392 124.471 49.968 123.511 50.608C123.127 50.864 123.063 51.568 122.743 51.824C122.103 52.272 121.143 52.336 120.503 52.784C117.943 54.576 117.175 55.472 114.423 56.752C112.247 57.712 109.815 59.696 107.447 59.696C106.039 59.696 104.439 58.992 104.119 57.264C104.119 56.752 104.311 56.112 104.311 55.536C104.311 55.152 104.247 54.704 103.991 54.32C104.695 53.552 104.951 51.952 105.399 50.608C105.847 49.136 106.231 47.664 106.295 46.512C107.191 45.424 106.807 44.912 107.127 42.992C107.127 41.264 106.039 40.112 104.375 40.112C102.007 40.112 99.447 42.544 97.847 43.76C96.375 45.04 96.951 43.504 93.559 46.896C93.175 47.152 92.855 47.152 92.471 47.472C91.511 48.368 90.487 49.328 89.399 50.032C89.783 47.152 90.999 45.168 91.703 42.544C91.447 41.52 90.231 41.392 89.207 41.008L85.495 54.512C85.815 54.96 86.135 55.408 86.711 55.792C88.247 55.664 92.087 51.248 92.535 50.8C92.663 50.672 92.919 50.544 93.047 50.352C96.055 47.6 98.999 45.872 101.239 43.952C102.071 43.504 102.647 42.8 103.863 42.736C103.927 42.992 103.927 43.376 103.927 43.696C103.927 44.144 103.863 44.4 103.991 44.4C103.735 45.424 103.159 46.64 103.159 47.344C103.159 47.6 103.351 47.728 103.351 47.856C103.351 48.496 102.839 48.24 102.839 48.944C102.839 49.264 102.903 49.52 102.903 49.776C102.903 50.352 102.199 50.928 102.199 51.504C102.199 51.824 102.327 52.272 102.327 52.592C102.327 53.488 101.623 54.192 101.623 54.896C101.623 56.112 102.007 58.48 102.263 58.864ZM177.672 43.824C177.672 43.824 177.608 43.888 177.544 43.888C176.776 44.848 175.752 44.784 174.856 45.232C174.472 45.552 174.088 46.064 173.576 46.32C173.128 46.704 172.552 46.832 171.848 47.152C171.464 48.112 170.76 48.24 169.736 48.752C169.736 48.752 169.672 48.816 169.672 48.944C169.672 49.072 169.736 49.2 169.736 49.264C169.672 49.328 169.608 49.328 169.544 49.328C169.416 49.328 169.352 49.328 169.288 49.328C168.904 49.328 167.496 50.992 166.792 51.696C164.616 53.424 161.544 56.496 161.224 56.496C161.096 56.496 161.032 56.496 160.968 56.432C160.712 57.072 158.664 58.992 158.024 59.504C157.512 59.824 155.08 63.344 154.312 63.344C154.312 63.344 154.248 63.344 154.248 63.28C154.44 61.424 155.016 60.592 155.592 58.992C155.784 58.352 155.912 57.712 156.104 57.072C156.424 55.792 156.936 54.512 157.256 53.232C157.512 52.272 157.512 51.184 157.704 50.096C157.768 49.712 158.024 49.456 158.088 49.072C158.088 48.624 158.152 48.048 158.152 47.408C158.152 46.32 157.64 43.12 156.744 43.12C156.68 43.12 156.552 43.12 156.424 43.12C156.36 43.12 156.36 43.12 156.36 43.056C156.36 42.992 156.36 42.864 156.36 42.8C156.36 42.16 153.608 41.584 153.224 41.584C151.24 41.584 149.832 42.736 149.576 42.864C149 43.12 148.232 43.312 147.848 43.504C147.464 43.696 147.272 44.272 146.888 44.528C146.632 44.656 146.376 44.592 146.12 44.784C145.864 44.912 145.736 45.232 145.544 45.424C142.984 47.152 140.232 49.968 139.848 49.968C139.784 49.968 139.656 49.968 139.592 49.968C139.4 49.968 139.464 50.288 139.336 50.352C137.8 51.312 137.544 52.144 135.944 53.488C134.152 54.64 134.024 55.728 133.512 55.728C133.448 55.792 133.256 55.792 133.192 55.92C132.616 56.432 131.912 57.776 131.272 57.776C131.272 57.776 131.144 57.712 131.016 57.712C130.632 57.712 130.504 58.608 129.864 58.608C129.736 58.608 129.672 58.544 129.544 58.48C129.544 56.24 131.08 55.472 131.08 53.232C131.656 53.104 131.464 52.656 131.592 52.272C131.784 51.44 134.088 48.432 134.344 47.728C134.792 46.576 134.792 45.424 135.368 44.272C134.664 43.76 134.344 42.992 133.192 42.992C132.36 44.144 131.592 45.232 131.592 47.024C130.952 47.472 130.12 50.096 130.12 49.776C130.12 50.16 130.376 50.16 130.376 50.608C129.48 50.8 129.288 52.912 129.288 52.464C129.288 52.464 129.288 52.528 129.352 52.592C129.352 53.04 128.712 53.104 128.712 53.36C128.712 53.552 128.712 53.68 128.712 53.872C128.712 54.128 128.456 54.128 128.392 54.384C127.816 55.856 127.24 57.392 127.176 58.992C126.664 59.312 126.408 59.952 126.408 60.592C126.408 61.872 127.24 63.152 128.136 63.152C129.288 63.152 130.888 61.36 131.464 60.656C131.592 60.592 131.848 60.464 131.976 60.272C132.232 60.016 132.104 59.696 132.36 59.504C133.256 58.416 135.176 56.624 136.072 55.6C136.904 55.216 137.352 54.32 137.992 53.744C138.312 53.424 138.76 53.232 139.016 52.912C140.104 52.016 141.64 50.48 142.472 49.84C142.6 49.712 142.856 49.712 143.048 49.648C144.968 48.112 147.016 46.256 149.064 45.04C149.512 44.784 149.96 44.784 150.472 44.592C151.112 44.208 152.328 43.44 153.544 43.44C156.936 43.44 155.272 46.128 156.36 47.216C155.592 50.288 155.464 53.04 154.952 54.512C154.952 54.576 154.632 54.832 154.632 54.96C154.504 55.28 154.568 55.792 154.44 56.112C153.288 60.784 151.752 63.472 150.664 66.992C148.168 69.296 145.224 72.048 143.56 74.16C143.112 74.736 143.432 75.12 142.984 75.568C142.728 75.824 141.512 75.76 141.512 76.08C141.512 76.272 141.704 76.592 141.704 76.784C141.704 77.168 140.232 77.872 139.848 78.192C139.336 78.832 138.632 79.28 138.184 79.856C137.928 80.176 137.928 80.752 137.672 81.072C137.352 81.392 136.968 81.584 136.712 81.904C136.584 82.032 136.648 82.352 136.52 82.48C133.448 85.552 133.832 87.344 132.104 88.112C132.104 88.24 132.104 88.304 132.104 88.368C132.104 88.88 130.824 90.544 130.312 91.568C129.864 92.272 128.648 94 128.648 94.64C128.648 94.768 128.712 94.832 128.712 94.896C128.712 95.088 128.392 95.024 128.328 95.152C127.56 96.816 127.048 98.544 127.048 100.208C127.048 100.72 127.112 101.296 127.24 101.872C128.136 102.192 128.776 102.768 129.672 103.152C132.04 102.832 133.256 101.232 134.152 99.952C135.176 98.928 136.392 97.392 136.392 97.264C136.392 97.136 136.392 97.008 136.392 96.88C136.392 96.688 136.712 96.688 136.776 96.496C137.16 96.048 137.224 95.472 137.928 95.28C138.824 92.912 140.36 90.992 141.704 88.88C143.112 86.576 144.264 84.464 145.544 82.224C145.544 82.096 145.864 82.16 145.864 81.968C145.864 81.84 145.864 81.712 145.864 81.584C145.864 81.392 146.76 79.728 147.08 78.832C147.208 78.768 147.528 78.768 147.528 78.576C147.528 78.448 147.464 78.256 147.464 78.192C147.464 77.872 147.976 78.128 147.976 77.232C149.32 74.672 150.92 71.6 151.752 69.232C152.392 67.76 154.952 64.944 156.872 63.408C157.192 63.152 158.216 61.616 158.472 61.424C159.496 60.592 161.544 58.16 162.504 57.52C163.528 56.816 165.832 54.384 166.472 53.68C166.6 53.552 166.856 53.552 167.112 53.424C168.008 52.656 169.736 50.992 170.824 50.352C171.016 50.096 171.016 49.648 171.336 49.456C172.744 49.072 173 47.472 173.896 47.472C174.088 47.472 174.216 47.536 174.344 47.6C174.28 47.472 174.28 47.344 174.28 47.216C174.28 46.256 175.304 46.128 176.008 46C176.072 45.552 177.928 43.952 177.608 44.016C177.672 43.952 177.928 43.952 178.12 43.952C178.056 43.888 177.992 43.76 177.928 43.76C177.864 43.76 177.736 43.824 177.672 43.824ZM132.808 98.48C131.848 99.504 131.016 101.104 129.352 101.232C129.352 101.104 129.288 100.912 129.288 100.72C129.288 100.208 129.48 99.504 129.48 99.248C129.48 99.056 129.288 98.864 129.288 98.864C129.352 98.16 130.248 96.752 130.504 96.112C131.144 94.512 132.488 91.696 132.488 92.272C132.616 91.76 132.552 91.632 133.192 90.992C133.384 90.672 133.192 90.288 133.512 89.84C133.896 89.456 134.6 88.88 134.664 88.048C135.624 87.088 136.392 86 137.096 84.848C137.096 84.848 137.096 84.784 137.096 84.72C137.096 84.464 136.712 83.696 136.712 83.44C136.712 83.12 137.352 83.312 137.544 83.12C137.736 82.736 137.544 82.416 137.8 82.032C137.992 81.712 138.952 81.392 139.144 81.072C139.592 80.304 139.976 79.024 140.424 79.024C140.872 79.024 141.256 77.424 142.984 76.72C143.432 76.528 143.112 76.336 143.432 76.272C144.328 74.288 146.952 73.2 148.104 71.536C148.168 71.536 148.232 71.536 148.232 71.536C148.488 71.536 148.552 71.792 148.552 71.984C147.016 74.544 145.992 77.488 144.648 80.112C143.944 81.392 143.112 82.672 142.472 83.952C142.152 84.4 141.832 84.848 141.512 85.36C141.192 86.384 140.872 86.32 140.616 86.768C140.424 87.088 140.488 87.472 140.296 87.792C140.104 88.112 139.72 88.304 139.528 88.56C139.4 88.752 139.464 89.008 139.336 89.2C138.184 91.504 137.544 91.952 137.224 92.4C136.904 92.912 136.52 93.296 136.264 93.872C136.136 93.936 136.2 94.256 136.072 94.448C135.944 94.64 135.496 94.832 135.368 95.024C135.176 95.152 135.304 95.472 135.112 95.664C134.792 96.368 133.832 97.328 132.808 98.48ZM186.425 36.336C186.425 35.312 183.929 34.16 182.905 34.16C182.585 34.16 182.329 34.224 182.073 34.416C182.073 36.592 183.929 36.912 185.465 37.552C185.657 36.976 186.425 37.232 186.425 36.336ZM197.753 45.872C197.689 45.872 197.689 45.872 197.689 45.872C197.689 45.68 198.777 45.04 198.777 44.912C198.777 44.912 198.777 44.912 198.713 44.912H198.649C198.649 44.848 198.713 44.4 198.713 44.08C198.713 43.888 198.713 43.696 198.585 43.696C198.201 44.144 198.009 43.824 197.625 44.08C195.833 45.488 194.361 46.32 193.081 47.472C190.713 49.52 187.705 51.312 185.593 53.296C183.865 54.96 181.305 56.24 179.513 57.392C179.449 57.392 179.449 57.392 179.385 57.392C179.385 57.392 179.257 57.392 179.129 57.392C178.873 57.392 179.065 57.712 178.809 57.84C177.849 58.416 177.017 58.672 176.184 58.672C175.224 58.672 174.328 58.992 174.328 57.2C174.328 55.728 174.712 54.192 175.16 52.848C175.352 52.336 175.928 51.952 176.12 51.44C176.377 50.864 176.569 49.84 176.569 49.392C176.569 49.2 176.505 49.072 176.505 48.944C176.505 48.624 177.145 48.432 177.273 48.112C177.785 46.768 178.424 45.616 178.745 44.4C178.105 43.888 177.849 42.992 176.761 42.992C175.608 42.992 174.392 47.792 173.944 48.624C173.88 48.752 173.496 48.688 173.496 49.072C173.496 49.2 173.56 49.328 173.56 49.456C173.56 49.648 172.984 50.672 172.792 51.248C172.089 52.912 171.32 55.024 171.32 56.88C171.32 59.312 172.92 61.296 176.12 61.296C177.785 61.296 179.065 60.08 180.345 59.44C182.969 57.712 185.017 56.176 186.873 54.768C189.945 52.336 192.185 50.992 194.041 48.624C194.809 48.496 195.257 48.048 195.705 47.536C196.217 46.832 196.921 47.152 197.753 45.872ZM269.556 30.128C269.62 29.808 269.684 29.488 269.684 29.232C269.684 27.248 268.404 26.032 268.276 23.472C267.444 23.216 267.508 22 267.252 21.488C267.252 21.296 266.676 21.232 266.676 21.04C266.676 20.912 266.74 20.784 266.74 20.592C266.74 20.272 266.356 20.336 266.292 20.208C266.164 19.952 266.292 19.632 266.1 19.12C265.908 18.8 265.396 18.736 265.268 18.416C264.82 17.968 265.332 17.712 264.244 16.688C263.668 15.536 262.9 14.512 262.004 13.36C262.004 13.296 262.004 13.296 262.004 13.232C262.004 13.168 262.004 12.976 262.004 12.912C262.004 12.784 261.62 12.784 261.492 12.592C259.956 11.12 259.316 9.904 257.972 8.496C257.588 8.24 257.012 8.304 256.692 8.048C256.18 7.728 256.628 7.024 255.924 7.024C252.532 3.632 250.292 3.824 249.076 3.248C249.012 3.184 248.948 2.8 248.82 2.736C247.54 2.032 245.876 1.776 244.532 1.2C241.716 0.495998 239.028 0.111996 236.212 0.111996C235.764 0.111996 235.316 0.111996 234.868 0.111996C234.612 0.111996 233.844 0.0479965 233.012 0.0479965C231.54 0.0479965 231.412 0.687996 230.388 0.943996C229.044 1.328 229.044 0.751999 227.316 1.968C226.932 2.288 226.292 2.416 226.036 2.736C224.884 3.76 224.116 5.168 224.116 6.832C224.116 10.864 225.524 13.68 226.484 16.432C228.404 20.912 230.772 24.816 232.82 27.76C233.396 28.656 234.228 29.36 234.868 30.128C235.572 31.024 236.212 31.792 236.852 32.624C243.764 39.024 249.652 43.12 260.212 44.976C261.172 45.104 262.132 45.168 263.092 45.168C265.268 45.168 266.164 44.912 267.38 44.912C267.764 44.912 268.084 44.976 268.276 45.232C266.1 47.792 262.452 50.16 259.956 52.144C259.828 52.208 259.764 52.592 259.7 52.592C259.444 52.848 258.932 52.656 258.612 52.912C257.14 53.872 256.82 54.32 255.924 54.832C255.348 55.216 254.772 55.28 254.132 55.664C253.94 55.792 253.876 56.24 253.556 56.432C253.3 56.624 252.916 56.496 252.66 56.688C252.02 56.944 251.636 57.392 251.124 57.712C250.612 57.904 249.972 58.096 249.332 58.352C248.82 58.672 248.372 59.184 247.796 59.44C247.412 59.632 247.092 59.568 246.772 59.632C245.748 60.464 244.66 60.656 244.148 60.656C242.868 60.656 238.388 58.416 236.148 57.392C235.572 57.136 234.74 56.944 234.164 56.688C233.14 56.368 232.5 55.472 231.412 55.472C230.324 55.088 229.3 54.384 228.02 54.384C227.316 53.296 225.78 53.424 224.756 53.104C224.116 52.912 223.988 52.592 223.156 52.4C223.22 52.4 223.22 52.4 223.22 52.464C223.22 52.528 223.028 52.592 222.964 52.592C222.58 52.592 222.324 52.08 221.876 52.08C221.812 52.08 221.748 52.144 221.684 52.144C220.916 51.888 219.892 51.696 218.74 51.696C212.788 51.696 210.676 55.088 210.676 56.752C210.676 58.992 211.38 59.312 211.892 60.144C211.892 60.208 211.892 60.208 211.892 60.272C211.892 60.336 211.828 60.528 211.828 60.656C211.828 60.72 211.828 60.784 211.892 60.784C212.02 60.784 212.212 60.784 212.276 60.784C212.404 60.784 212.34 60.912 212.34 60.912C212.34 61.104 212.276 61.296 212.276 61.552C212.276 61.552 212.276 61.68 212.34 61.744C212.404 61.744 212.532 61.68 212.532 61.68C212.852 61.68 212.66 62.064 212.852 62.192C213.876 63.6 215.86 64.496 216.692 65.072C217.844 65.712 221.876 67.12 225.268 67.12C225.844 67.12 226.42 67.12 227.06 67.056C227.508 67.056 227.828 67.312 228.212 67.312C229.172 67.312 230.068 66.992 230.58 66.736C232.244 66.224 234.1 66.096 235.444 65.84C237.556 65.2 239.476 64.624 241.204 63.984C242.036 63.728 242.868 63.344 243.508 63.28C244.404 63.28 245.812 64.176 247.348 64.752C254.324 67.312 260.724 68.976 268.084 70.512C272.82 71.664 277.748 72.304 281.46 72.304C283.124 72.304 284.468 72.176 285.492 72.112C286.004 72.112 286.068 72.368 286.516 72.368C286.9 72.368 287.412 72.112 287.412 72.112C287.796 72.112 288.052 72.368 288.372 72.368C289.14 72.368 291.764 72.176 292.084 71.408C290.292 70.256 288.052 70.576 286.004 70.512C273.14 70.192 261.684 67.056 251.124 63.472C249.78 63.088 248.372 62.832 247.348 61.936C247.796 60.912 249.268 61.04 250.036 60.784C250.292 60.656 250.612 60.08 250.868 59.952C253.492 58.672 255.924 57.392 258.164 55.856C261.236 53.936 262.132 52.912 263.22 52.4C263.476 52.208 263.604 51.696 263.732 51.568C265.652 50.352 267.7 49.008 269.044 47.536C269.364 47.152 270.516 46.512 271.092 46.064C273.204 44.336 275.124 42.736 277.94 42.032C280.756 40.752 282.612 40.24 284.532 38.896C285.108 38.512 285.748 38.384 286.26 37.936C287.092 36.912 288.052 36.912 289.012 36.336C290.612 35.696 291.892 33.776 292.852 33.072C293.044 33.008 293.492 33.072 293.684 32.88C294.324 32.24 294.964 31.472 295.668 30.832C295.86 30.64 296.436 30.768 296.436 30.512C296.436 30.384 296.372 30.192 296.372 30.192C296.372 30.128 296.436 30.064 296.5 30.064C296.692 30.064 296.756 30.128 296.884 30.128C296.948 30.128 298.036 29.232 298.228 29.04C298.932 28.4 299.38 27.248 299.956 26.8C301.492 25.712 302.452 23.92 303.22 22.704C303.476 22.448 304.052 22.192 304.052 21.808C304.052 21.616 303.924 21.424 303.924 21.232C303.924 20.976 304.436 21.168 304.564 20.912C305.076 20.016 305.972 18.864 306.292 18.224C306.932 16.816 307.316 14.192 307.316 13.36C307.252 10.992 305.972 10.032 304.5 10.032C300.276 10.032 296.692 15.472 296.308 15.472C296.18 15.472 296.052 15.408 295.988 15.408C295.924 15.408 295.924 15.408 295.924 15.472C295.924 15.536 295.988 15.728 295.988 15.792C295.988 16.112 294.58 16.88 294.58 16.944C294.58 17.072 294.644 17.2 294.644 17.264C294.644 17.392 294.58 17.392 294.452 17.392C294.388 17.392 294.26 17.392 294.196 17.392C294.004 17.392 293.812 18.352 293.684 18.416C292.788 19.44 291.7 20.08 290.804 20.912C290.612 21.232 290.612 21.616 290.292 22C289.78 22.704 288.692 23.536 288.372 23.984C288.116 24.176 288.244 24.56 288.052 24.816C284.852 28.016 283.7 29.68 281.78 31.856C280.692 33.072 279.284 34.032 278.708 35.632C277.172 35.888 276.916 37.232 276.468 37.936C276.148 38.192 275.7 38.384 275.38 38.64C274.228 39.984 272.948 41.52 271.412 42.032C268.852 42.544 266.1 42.992 263.668 42.992C260.34 42.992 257.46 42.352 255.156 41.712C247.732 39.92 245.94 37.616 242.932 35.184C240.884 33.52 238.516 31.408 237.428 29.552C237.108 28.976 236.148 28.784 236.148 28.528C236.148 28.336 236.148 28.208 236.148 28.08C236.148 27.632 234.612 26.8 234.612 26.544C234.612 26.416 234.612 26.288 234.612 26.16C234.612 26.032 234.612 26.032 234.548 26.032C234.484 26.032 234.292 26.032 234.292 26.032C234.164 26.032 234.1 26.032 234.1 25.904C234.1 25.776 234.164 25.648 234.164 25.52C234.164 25.392 233.716 25.392 233.588 25.264C233.012 24.24 232.116 21.68 231.796 21.488C231.604 20.976 231.156 21.424 230.772 20.208C228.66 15.984 226.996 11.632 226.996 8.368C226.996 7.408 227.124 6.512 227.316 5.488C227.38 5.488 227.38 5.488 227.444 5.488C227.7 5.488 227.828 5.296 227.828 5.04C227.828 4.976 227.828 4.912 227.828 4.848C228.852 4.4 229.556 3.44 230.58 2.992C232.18 2.096 234.868 1.84 236.788 1.84C245.492 1.84 249.14 5.168 251.38 5.488C252.596 7.088 254.324 7.92 255.668 9.072C255.86 9.264 255.924 9.648 256.116 9.776C256.372 10.032 256.948 10.032 257.14 10.352C257.652 10.608 258.228 11.696 258.42 12.08C260.212 13.872 260.532 14.576 262.004 16.432C262.324 17.008 262.772 18.224 262.964 18.416C263.476 18.864 263.796 20.016 263.988 20.208C265.012 21.104 265.012 23.152 265.78 23.984C267.124 25.392 266.612 30.192 268.916 30.192C269.172 30.192 269.3 30.192 269.556 30.128ZM301.172 14.64C302.26 13.808 303.22 12.656 304.756 12.592C304.756 12.784 304.756 12.976 304.756 13.168C304.756 16.56 302.836 19.44 300.98 22C297.012 27.376 292.532 31.024 286.772 34.864C285.428 35.76 284.02 36.592 282.42 37.424C282.292 37.552 282.292 37.872 281.972 37.936C281.332 38.128 280.948 38.192 280.18 38.448C279.54 38.704 279.028 39.472 278.26 39.472C278.132 39.472 278.068 39.472 277.94 39.472C278.644 38.32 279.348 37.104 280.692 36.592C280.884 36.592 280.948 36.464 280.948 36.272C280.948 36.208 280.884 36.08 280.884 35.952C280.884 35.312 281.524 35.696 281.78 35.44C281.908 35.312 281.908 34.608 282.036 34.608C282.1 34.608 282.228 34.672 282.292 34.672C282.42 34.672 282.484 34.608 282.484 34.48C282.484 34.352 282.42 34.224 282.42 34.16C282.42 33.712 284.532 32.624 285.044 32.304C285.236 30.64 286.132 29.936 287.54 29.296C288.564 27.504 290.356 26.352 291.636 24.496C291.956 23.856 291.892 23.216 292.596 22.704C292.724 22.192 293.62 21.936 294.132 21.488C294.452 21.232 294.708 20.336 295.156 20.208C297.332 19.312 298.804 16.752 299.636 15.856C300.532 15.28 300.724 14.576 300.852 14.576C300.916 14.576 301.108 14.64 301.172 14.64ZM224.756 55.152C229.684 56.944 235.828 59.824 240.5 61.936C239.412 63.216 236.212 63.536 234.164 63.984C231.86 64.432 228.98 65.072 225.78 65.072C223.988 65.072 221.492 64.88 219.892 64.496C219.316 64.368 217.204 63.152 216.692 62.704C215.156 61.936 215.796 62.064 215.092 61.232C214.26 60.272 213.172 59.696 213.172 58.032C213.172 57.2 213.428 56.368 213.556 55.472C214.132 55.28 214.26 55.088 214.644 54.832C216.052 54.384 217.972 53.744 218.868 53.744C220.852 53.744 223.86 54.896 223.732 54.832C224.052 55.088 224.18 55.152 224.372 55.152C224.372 55.152 224.436 55.088 224.5 55.088C224.564 55.088 224.692 55.152 224.756 55.152ZM312.487 36.336C312.487 35.312 309.991 34.16 308.967 34.16C308.647 34.16 308.391 34.224 308.135 34.416C308.135 36.592 309.991 36.912 311.527 37.552C311.719 36.976 312.487 37.232 312.487 36.336ZM323.815 45.872C323.751 45.872 323.751 45.872 323.751 45.872C323.751 45.68 324.839 45.04 324.839 44.912C324.839 44.912 324.839 44.912 324.775 44.912H324.711C324.711 44.848 324.775 44.4 324.775 44.08C324.775 43.888 324.775 43.696 324.647 43.696C324.263 44.144 324.071 43.824 323.687 44.08C321.895 45.488 320.423 46.32 319.143 47.472C316.775 49.52 313.767 51.312 311.655 53.296C309.927 54.96 307.367 56.24 305.575 57.392C305.511 57.392 305.511 57.392 305.447 57.392C305.447 57.392 305.319 57.392 305.191 57.392C304.935 57.392 305.127 57.712 304.871 57.84C303.911 58.416 303.079 58.672 302.247 58.672C301.287 58.672 300.391 58.992 300.391 57.2C300.391 55.728 300.775 54.192 301.223 52.848C301.415 52.336 301.991 51.952 302.183 51.44C302.439 50.864 302.631 49.84 302.631 49.392C302.631 49.2 302.567 49.072 302.567 48.944C302.567 48.624 303.207 48.432 303.335 48.112C303.847 46.768 304.487 45.616 304.807 44.4C304.167 43.888 303.911 42.992 302.823 42.992C301.671 42.992 300.455 47.792 300.007 48.624C299.943 48.752 299.559 48.688 299.559 49.072C299.559 49.2 299.623 49.328 299.623 49.456C299.623 49.648 299.047 50.672 298.855 51.248C298.151 52.912 297.383 55.024 297.383 56.88C297.383 59.312 298.983 61.296 302.183 61.296C303.847 61.296 305.127 60.08 306.407 59.44C309.031 57.712 311.079 56.176 312.935 54.768C316.007 52.336 318.247 50.992 320.103 48.624C320.871 48.496 321.319 48.048 321.767 47.536C322.279 46.832 322.983 47.152 323.815 45.872Z" fill="black"/>
</svg>
